<svg width="655" height="564" viewBox="0 0 655 564" fill="none" xmlns="http://www.w3.org/2000/svg">
<path fill-rule="evenodd" clip-rule="evenodd" d="M298.254 520.508C251.475 568.653 196.05 575.959 135.525 542.051C75.0004 508.144 33.5421 464.308 14.2541 413.353C-5.2557 362.398 -3.26038 313.878 20.4617 270.791C43.9621 227.517 81.4297 203.351 130.426 199.604C179.644 195.857 246.154 152.021 325.967 70.9051C406.001 -10.3981 489.805 -20.8888 572.278 39.9949C654.751 100.879 668.048 211.95 641 297C613.952 382.05 622.978 432.402 530 449C510 497 345.033 472.176 298.254 520.508Z" fill="#3475E9" stroke="black"/>
<path d="M503.08 316.93H394.95V320.1H503.08V316.93Z" fill="#F0F0F0"/>
<path d="M510.53 328.75H394.95V332.21H510.53V328.75Z" fill="#F0F0F0"/>
<path d="M510.53 340.71H394.95V344.17H510.53V340.71Z" fill="#F0F0F0"/>
<path d="M432.74 299.76H394.95V307.99H432.74V299.76Z" fill="#F0F0F0"/>
<path d="M335.22 79.05H172.36V172.9H335.22V79.05Z" fill="#E6E6E6"/>
<path d="M301.92 129.13H193.79V132.3H301.92V129.13Z" fill="#F0F0F0"/>
<path d="M309.37 140.95H193.79V144.41H309.37V140.95Z" fill="#F0F0F0"/>
<path d="M309.37 152.91H193.79V156.37H309.37V152.91Z" fill="#F0F0F0"/>
<path d="M231.58 111.96H193.79V120.19H231.58V111.96Z" fill="#F0F0F0"/>
<path d="M335.22 79.05H172.36V94.15H335.22V79.05Z" fill="#E0E0E0"/>
<path d="M322.14 91.82C321.93 91.63 324.03 89.09 326.82 86.17C329.61 83.25 332.06 81.04 332.26 81.24C332.46 81.44 330.37 83.97 327.58 86.89C324.79 89.81 322.34 92 322.14 91.82Z" fill="white"/>
<path d="M332.26 91.82C332.06 92.02 329.62 89.82 326.82 86.89C324.02 83.96 321.93 81.44 322.14 81.24C322.35 81.04 324.78 83.24 327.58 86.17C330.38 89.1 332.47 91.63 332.26 91.82Z" fill="white"/>
<path d="M239.74 209.12H131.61V212.29H239.74V209.12Z" fill="#F0F0F0"/>
<path d="M247.19 220.94H131.61V224.4H247.19V220.94Z" fill="#F0F0F0"/>
<path d="M247.19 232.9H131.61V236.36H247.19V232.9Z" fill="#F0F0F0"/>
<path d="M169.4 191.95H131.61V200.18H169.4V191.95Z" fill="#F0F0F0"/>
<path d="M273.04 159.04H110.18V174.14H273.04V159.04Z" fill="#E0E0E0"/>
<path d="M462.65 275.12H270.35V447.28H462.65V275.12Z" fill="#E6E6E6"/>
<path d="M280.02 220.89H129.38V377.4H280.02V220.89Z" fill="#F0F0F0"/>
<path d="M280.02 220.89H129.38V237.94H280.02V220.89Z" fill="#E0E0E0"/>
<path d="M141.82 229.24C141.793 229.858 141.584 230.455 141.221 230.956C140.857 231.457 140.355 231.84 139.775 232.058C139.196 232.276 138.566 232.319 137.962 232.181C137.359 232.044 136.809 231.733 136.381 231.286C135.953 230.839 135.665 230.276 135.554 229.667C135.443 229.058 135.514 228.43 135.756 227.861C135.999 227.291 136.404 226.806 136.92 226.464C137.436 226.123 138.041 225.941 138.66 225.94C139.516 225.961 140.329 226.32 140.921 226.938C141.513 227.556 141.836 228.384 141.82 229.24Z" fill="white"/>
<path d="M154.65 229.24C154.624 229.861 154.417 230.461 154.053 230.965C153.689 231.469 153.185 231.855 152.603 232.075C152.022 232.295 151.388 232.339 150.782 232.202C150.176 232.064 149.623 231.751 149.193 231.302C148.763 230.853 148.475 230.288 148.364 229.676C148.253 229.064 148.324 228.433 148.569 227.862C148.814 227.29 149.221 226.803 149.74 226.462C150.26 226.12 150.868 225.939 151.49 225.94C152.346 225.961 153.159 226.32 153.751 226.938C154.343 227.556 154.666 228.384 154.65 229.24Z" fill="white"/>
<path d="M167.48 229.24C167.455 229.861 167.247 230.461 166.883 230.965C166.519 231.469 166.015 231.855 165.433 232.075C164.852 232.295 164.218 232.339 163.612 232.202C163.006 232.064 162.453 231.751 162.023 231.302C161.593 230.853 161.305 230.288 161.194 229.676C161.083 229.064 161.154 228.433 161.399 227.862C161.644 227.29 162.051 226.803 162.57 226.462C163.09 226.12 163.698 225.939 164.32 225.94C165.176 225.961 165.989 226.32 166.581 226.938C167.173 227.556 167.496 228.384 167.48 229.24Z" fill="white"/>
<path d="M515.38 113.28H323.08V304.94H515.38V113.28Z" fill="#F0F0F0"/>
<path d="M515.38 113.28H323.08V135.73H515.38V113.28Z" fill="#E0E0E0"/>
<path d="M339.46 124.28C339.425 125.096 339.151 125.884 338.671 126.546C338.192 127.207 337.529 127.714 336.765 128.002C336.001 128.29 335.168 128.347 334.372 128.167C333.575 127.986 332.849 127.575 332.284 126.986C331.718 126.396 331.339 125.653 331.192 124.85C331.045 124.046 331.137 123.217 331.458 122.465C331.778 121.714 332.312 121.073 332.993 120.622C333.674 120.171 334.473 119.931 335.29 119.93C336.419 119.956 337.492 120.429 338.273 121.244C339.055 122.059 339.481 123.151 339.46 124.28Z" fill="white"/>
<path d="M355.13 121.34C355.684 121.942 356.049 122.694 356.179 123.502C356.31 124.31 356.199 125.138 355.862 125.884C355.524 126.63 354.975 127.259 354.282 127.695C353.589 128.131 352.783 128.353 351.965 128.334C351.147 128.314 350.353 128.055 349.681 127.588C349.009 127.12 348.49 126.465 348.187 125.705C347.885 124.944 347.813 124.112 347.981 123.311C348.149 122.51 348.548 121.776 349.13 121.2C349.945 120.424 351.034 120.004 352.159 120.03C353.284 120.056 354.352 120.527 355.13 121.34Z" fill="white"/>
<path d="M373.24 124.28C373.205 125.096 372.931 125.884 372.451 126.546C371.972 127.207 371.309 127.714 370.545 128.002C369.781 128.29 368.948 128.347 368.152 128.167C367.355 127.986 366.629 127.575 366.064 126.986C365.498 126.396 365.119 125.653 364.972 124.85C364.825 124.046 364.917 123.217 365.238 122.465C365.558 121.714 366.092 121.073 366.773 120.622C367.454 120.171 368.253 119.931 369.07 119.93C370.199 119.956 371.272 120.429 372.053 121.244C372.835 122.059 373.261 123.151 373.24 124.28Z" fill="white"/>
<path d="M473.84 498.13C473.84 498.27 404.4 498.39 318.77 498.39C233.14 498.39 163.67 498.27 163.67 498.13C163.67 497.99 233.1 497.87 318.77 497.87C404.44 497.87 473.84 498 473.84 498.13Z" fill="#263238"/>
<path d="M406.18 375.71C390.73 364.92 387.23 344.89 387.84 326.88C387.94 323.88 387.61 320.7 389.04 318.07C390.47 315.44 393.81 313.63 396.5 314.89C398.73 315.94 399.7 318.54 400.95 320.69C402.618 323.554 405.062 325.887 408 327.42C409.91 328.42 412.28 329.02 414.17 327.98C416.77 326.55 417.07 322.98 417.05 319.98C417.05 314.4 417.017 308.827 416.95 303.26C416.77 300.271 417.074 297.272 417.85 294.38C418.78 291.54 420.85 288.91 423.68 288.11C426.51 287.31 430.04 288.96 430.68 291.88C430.79 293.117 430.82 294.359 430.77 295.6C430.85 296.85 431.43 298.22 432.6 298.6C433.77 298.98 434.99 298.11 435.89 297.23C438.97 294.23 441.07 290.32 443.02 286.46C444.97 282.6 446.88 278.63 449.68 275.34C452.48 272.05 456.35 269.44 460.68 269.19C465.01 268.94 469.52 271.6 470.6 275.8C471.68 280 469.23 284.29 466.6 287.7C462.631 292.762 457.953 297.224 452.71 300.95C451.687 301.509 450.87 302.382 450.38 303.44C449.73 305.44 451.62 307.44 453.59 308.07C455.82 308.81 458.24 308.58 460.59 308.86C462.94 309.14 465.44 310.16 466.33 312.36C467.55 315.42 464.99 318.62 462.48 320.72C457.44 324.92 451.717 328.225 445.56 330.49C443.36 331.29 441.05 332 439.27 333.54C437.49 335.08 436.43 337.77 437.5 339.88C438.57 341.99 441.32 342.66 443.63 342.23C445.94 341.8 447.99 340.56 450.19 339.73C454.3 338.18 459.6 338.46 462.19 342.01C462.992 343.233 463.5 344.625 463.674 346.077C463.847 347.53 463.682 349.003 463.19 350.38C462.189 353.121 460.649 355.634 458.66 357.77C452.11 365.595 443.6 371.541 434 375C424.47 378.3 415.64 379.2 406.17 375.73" fill="#8FADE3"/>
<path d="M466.2 271.66C466.2 271.66 466.11 271.76 465.91 271.94L465.02 272.73C464.24 273.43 463.09 274.45 461.64 275.8C457.529 279.617 453.711 283.739 450.22 288.13C447.99 290.9 445.68 294.04 443.22 297.45C440.76 300.86 438.22 304.54 435.7 308.45C433.013 312.573 430.553 316.839 428.33 321.23C427.17 323.52 426.15 325.91 425.1 328.35L422 335.8C417.914 345.184 414.355 354.789 411.34 364.57C408.912 372.573 407.238 380.785 406.34 389.1C405.758 394.711 405.665 400.362 406.06 405.99C406.22 407.99 406.37 409.52 406.51 410.56C406.57 411.06 406.61 411.46 406.65 411.75V412.16C406.607 412.03 406.577 411.896 406.56 411.76C406.51 411.47 406.45 411.08 406.37 410.58C406.19 409.58 406 408 405.82 406C405.338 400.362 405.371 394.692 405.92 389.06C406.762 380.71 408.399 372.459 410.81 364.42C413.8 354.612 417.349 344.982 421.44 335.58L424.62 328.16C425.67 325.73 426.7 323.32 427.87 321.02C430.109 316.616 432.589 312.34 435.3 308.21C437.86 304.21 440.44 300.59 442.87 297.21C445.3 293.83 447.65 290.67 449.87 287.91C453.397 283.53 457.266 279.438 461.44 275.67C462.92 274.34 464.1 273.34 464.9 272.67L465.83 271.92C465.944 271.821 466.068 271.734 466.2 271.66Z" fill="#263238"/>
<path d="M428 321C427.859 320.588 427.762 320.162 427.71 319.73C427.55 318.9 427.37 317.73 427.16 316.21C426.73 313.21 426.29 309.1 425.82 304.55C425.35 300 424.82 295.88 424.38 292.91C424.15 291.43 423.95 290.24 423.81 289.41C423.701 288.985 423.644 288.549 423.64 288.11C423.812 288.511 423.936 288.93 424.01 289.36C424.23 290.18 424.48 291.36 424.76 292.85C425.33 295.85 425.89 299.93 426.36 304.49C426.83 309.05 427.23 313.05 427.54 316.16C427.69 317.56 427.82 318.75 427.92 319.7C427.998 320.129 428.025 320.565 428 321Z" fill="#263238"/>
<path d="M466.48 313.82C465.993 313.926 465.498 313.986 465 314C464 314.09 462.58 314.21 460.82 314.41C457.3 314.79 452.46 315.49 447.15 316.49C441.84 317.49 437.07 318.62 433.64 319.49C431.93 319.93 430.55 320.33 429.64 320.6C429.154 320.773 428.651 320.893 428.14 320.96C428.602 320.728 429.084 320.537 429.58 320.39C430.52 320.06 431.88 319.6 433.58 319.11C436.99 318.11 441.76 316.92 447.09 315.9C451.605 315.037 456.161 314.403 460.74 314C462.51 313.85 463.94 313.79 464.94 313.77C465.454 313.735 465.97 313.752 466.48 313.82Z" fill="#263238"/>
<path d="M411.3 363.72C411.193 363.575 411.106 363.417 411.04 363.25L410.38 361.86C409.81 360.65 409.04 358.86 408.12 356.67C406.26 352.27 403.89 346.11 401.37 339.27C398.85 332.43 396.53 326.27 394.77 321.82C393.91 319.66 393.2 317.89 392.67 316.57L392.11 315.14C392.032 314.975 391.979 314.8 391.95 314.62C392.057 314.765 392.144 314.923 392.21 315.09L392.87 316.48C393.43 317.69 394.21 319.48 395.13 321.67C396.99 326.07 399.36 332.23 401.88 339.07C404.4 345.91 406.72 352.07 408.48 356.52C409.34 358.68 410.05 360.45 410.57 361.77C410.8 362.34 410.99 362.77 411.14 363.2C411.218 363.365 411.271 363.54 411.3 363.72Z" fill="#263238"/>
<path d="M462.38 347.25C462.22 347.342 462.048 347.412 461.87 347.46L460.39 347.96L454.92 349.73C450.3 351.23 443.92 353.37 436.92 355.73C429.92 358.09 423.51 360.19 418.86 361.59C416.54 362.3 414.65 362.84 413.34 363.2L411.83 363.59C411.654 363.646 411.473 363.683 411.29 363.7C411.45 363.608 411.622 363.537 411.8 363.49L413.28 362.99L418.75 361.22C423.37 359.72 429.75 357.58 436.75 355.22C443.75 352.86 450.15 350.76 454.8 349.36C457.13 348.65 459.01 348.11 460.33 347.75L461.84 347.36C462.016 347.304 462.197 347.267 462.38 347.25Z" fill="#263238"/>
<path d="M441.54 104.68L436.39 106.52L434.18 99.79C430.12 87.38 417.18 80.79 405.29 84.98C393.4 89.17 387.07 102.78 391.13 115.19L393.34 121.92L388.17 123.77C386.199 124.535 384.598 126.03 383.7 127.944C382.802 129.859 382.677 132.045 383.35 134.05L397.68 177.84C397.977 178.832 398.471 179.755 399.132 180.552C399.793 181.35 400.608 182.007 401.528 182.483C402.447 182.96 403.454 183.247 404.486 183.327C405.519 183.407 406.558 183.279 407.54 182.95L460.91 163.86C462.907 163.097 464.531 161.588 465.439 159.653C466.348 157.717 466.47 155.504 465.78 153.48L451.44 109.69C451.135 108.7 450.633 107.783 449.966 106.991C449.298 106.199 448.478 105.551 447.554 105.083C446.63 104.615 445.621 104.339 444.588 104.269C443.555 104.2 442.518 104.34 441.54 104.68ZM400.86 111.68C399.765 108.453 399.962 104.928 401.408 101.843C402.855 98.7577 405.439 96.3521 408.62 95.13C410.191 94.5926 411.853 94.3772 413.509 94.4964C415.165 94.6156 416.779 95.0672 418.257 95.8241C419.734 96.581 421.044 97.6277 422.108 98.9018C423.172 100.176 423.969 101.651 424.45 103.24L426.65 109.97L403.06 118.41L400.86 111.68ZM430.86 150.54L434.52 161.72C434.587 161.944 434.566 162.186 434.459 162.394C434.353 162.603 434.171 162.762 433.95 162.84L428.82 164.67C428.616 164.727 428.398 164.702 428.211 164.601C428.025 164.501 427.885 164.332 427.82 164.13L424.13 153C422.095 152.889 420.143 152.159 418.535 150.908C416.926 149.657 415.738 147.945 415.13 146C414.26 143.429 414.419 140.621 415.573 138.164C416.727 135.708 418.786 133.793 421.32 132.82C422.571 132.393 423.896 132.221 425.214 132.317C426.533 132.412 427.819 132.772 428.996 133.374C430.172 133.977 431.216 134.811 432.063 135.825C432.911 136.84 433.546 138.015 433.93 139.28C434.573 141.256 434.627 143.376 434.083 145.381C433.54 147.387 432.423 149.19 430.87 150.57L430.86 150.54Z" fill="#8FADE3"/>
<path d="M436.16 106.4C436.16 106.54 426.61 110.13 414.73 114.4C402.85 118.67 393.16 122.1 393.11 122C393.06 121.9 402.66 118.28 414.55 114C426.44 109.72 436.11 106.27 436.16 106.4Z" fill="#263238"/>
<path d="M447.5 108.24C447.544 108.327 447.581 108.417 447.61 108.51C447.69 108.71 447.78 108.97 447.9 109.29C448.16 110.02 448.52 111.03 448.97 112.29L452.81 123.47C454.41 128.21 456.32 133.83 458.44 140.07C459.44 143.2 460.62 146.46 461.72 149.89C462.309 151.658 462.563 153.519 462.47 155.38C462.385 156.348 462.11 157.289 461.66 158.15C461.179 159.008 460.538 159.765 459.77 160.38C458.225 161.508 456.51 162.382 454.69 162.97L449.54 164.82L439.79 168.31L423.28 174.19L412.13 178.11L409.13 179.11L408.33 179.37C408.244 179.408 408.153 179.432 408.06 179.44C408.06 179.44 408.14 179.44 408.31 179.32L409.09 179.01L412.09 177.88L423.18 173.8L439.66 167.8L449.39 164.28L454.54 162.42C456.308 161.856 457.974 161.008 459.47 159.91C460.184 159.34 460.782 158.637 461.23 157.84C461.653 157.044 461.909 156.169 461.98 155.27C462.072 153.477 461.828 151.683 461.26 149.98C460.18 146.58 459.04 143.29 458.01 140.16C455.93 133.91 454.01 128.27 452.49 123.53C450.97 118.79 449.69 114.98 448.81 112.3C448.39 110.99 448.07 109.97 447.81 109.23L447.57 108.43C447.54 108.369 447.516 108.306 447.5 108.24Z" fill="#263238"/>
<path d="M419.34 94.45C419.34 94.45 418.81 94.19 417.83 93.79C416.433 93.2533 414.956 92.9558 413.46 92.91C411.243 92.834 409.037 93.2506 407 94.13C404.523 95.225 402.406 96.9961 400.89 99.24C399.364 101.478 398.545 104.122 398.54 106.83C398.561 109.05 398.898 111.255 399.54 113.38C400.06 115.2 400.6 116.65 400.96 117.66C401.172 118.173 401.346 118.701 401.48 119.24C401.196 118.76 400.958 118.255 400.77 117.73C400.36 116.73 399.77 115.31 399.19 113.48C398.478 111.333 398.09 109.092 398.04 106.83C398.013 104.019 398.851 101.269 400.44 98.95C402.009 96.6241 404.213 94.7982 406.79 93.69C408.89 92.8058 411.165 92.4158 413.44 92.55C414.968 92.6279 416.469 92.9837 417.87 93.6C418.244 93.7728 418.606 93.9733 418.95 94.2C419.092 94.2625 419.224 94.3468 419.34 94.45Z" fill="#263238"/>
<path d="M419.8 133.58C419.96 133.483 420.127 133.4 420.3 133.33C420.801 133.104 421.319 132.92 421.85 132.78C422.693 132.531 423.562 132.384 424.44 132.34C425.634 132.276 426.828 132.456 427.95 132.87C430.51 133.77 432.86 136.38 434.02 139.87C434.576 141.743 434.576 143.737 434.02 145.61C433.403 147.643 432.298 149.493 430.8 151L430.86 150.73C432.19 154.38 433.64 158.34 435.14 162.47L435.23 162.72L434.98 162.81L432.69 163.57L427.69 165.24L427.44 165.32L427.36 165.07C425.99 160.93 424.49 157.07 423.36 153.28L423.58 153.45C421.625 153.288 419.761 152.554 418.22 151.34C416.826 150.266 415.682 148.901 414.87 147.34C414.137 145.956 413.772 144.406 413.81 142.84C413.856 141.239 414.256 139.669 414.98 138.241C415.705 136.813 416.736 135.563 418 134.58C418.52 134.158 419.104 133.82 419.73 133.58C419.165 133.915 418.618 134.279 418.09 134.67C416.701 135.845 415.637 137.356 415 139.06C414.453 140.345 414.197 141.734 414.251 143.13C414.304 144.525 414.666 145.891 415.31 147.13C416.109 148.632 417.225 149.942 418.58 150.97C420.05 152.124 421.827 152.819 423.69 152.97H423.86L423.91 153.12C425.01 156.84 426.52 160.73 427.91 164.89L427.58 164.73L432.58 163.06L434.86 162.29L434.7 162.63C433.21 158.5 431.77 154.53 430.45 150.88V150.73L430.57 150.61C432.024 149.166 433.108 147.392 433.73 145.44C434.26 143.648 434.26 141.742 433.73 139.95C432.64 136.59 430.39 134.04 427.95 133.14C426.87 132.724 425.717 132.53 424.56 132.57C423.696 132.59 422.837 132.707 422 132.92C420.51 133.29 419.81 133.63 419.8 133.58Z" fill="#263238"/>
<path d="M388.89 422.32L289 421.86C283.231 421.828 277.711 419.508 273.652 415.41C269.593 411.311 267.326 405.769 267.35 400L268.41 149.59C268.422 146.732 268.997 143.904 270.102 141.269C271.207 138.633 272.821 136.241 274.851 134.23C276.881 132.218 279.288 130.626 281.934 129.545C284.579 128.464 287.412 127.916 290.27 127.93L390.15 128.39C395.919 128.419 401.44 130.737 405.501 134.833C409.562 138.93 411.831 144.471 411.81 150.24L410.75 400.64C410.738 403.499 410.163 406.327 409.058 408.964C407.954 411.601 406.34 413.994 404.31 416.007C402.28 418.021 399.874 419.614 397.228 420.697C394.582 421.78 391.749 422.332 388.89 422.32Z" fill="#455A64"/>
<path d="M390 137H370.64C370.008 137.012 369.385 137.148 368.806 137.4C368.227 137.653 367.703 138.017 367.265 138.472C366.827 138.927 366.482 139.464 366.251 140.052C366.021 140.64 365.908 141.268 365.92 141.9V145.41C365.932 146.041 365.819 146.669 365.588 147.256C365.357 147.844 365.013 148.38 364.574 148.834C364.136 149.288 363.612 149.652 363.033 149.903C362.454 150.155 361.831 150.29 361.2 150.3L323.46 150.13C322.183 150.096 320.972 149.557 320.093 148.63C319.214 147.704 318.738 146.467 318.77 145.19V141.68C318.802 140.405 318.328 139.169 317.451 138.243C316.573 137.317 315.365 136.777 314.09 136.74H307.28L290.33 136.66C286.298 136.636 282.422 138.21 279.548 141.039C276.675 143.867 275.04 147.719 275 151.75L274 396.17C273.991 398.17 274.376 400.152 275.132 402.004C275.889 403.855 277.003 405.539 278.411 406.96C279.819 408.381 281.493 409.51 283.337 410.284C285.181 411.058 287.16 411.461 289.16 411.47L388.84 411.93C390.841 411.939 392.825 411.554 394.677 410.797C396.53 410.039 398.215 408.925 399.637 407.516C401.059 406.107 402.189 404.432 402.963 402.587C403.738 400.741 404.141 398.761 404.15 396.76L405.15 152.34C405.174 148.297 403.592 144.41 400.751 141.534C397.91 138.657 394.043 137.026 390 137Z" fill="white"/>
<path d="M376.59 379.32L302.47 379C301.7 379 301.08 378.16 301.09 377.14L301.17 357.75C301.17 356.75 301.8 355.89 302.57 355.89L376.69 356.23C377.117 356.304 377.498 356.539 377.756 356.888C378.013 357.236 378.125 357.671 378.07 358.1L378 377.47C378 378.5 377.36 379.33 376.59 379.32Z" fill="#8FADE3"/>
<path d="M326.54 365.216C326.505 364.923 326.365 364.696 326.119 364.534C325.872 364.373 325.57 364.292 325.212 364.292C324.95 364.292 324.721 364.334 324.525 364.419C324.33 364.504 324.178 364.62 324.068 364.768C323.961 364.916 323.907 365.085 323.907 365.274C323.907 365.431 323.944 365.567 324.019 365.681C324.096 365.792 324.195 365.886 324.314 365.961C324.433 366.034 324.558 366.095 324.689 366.143C324.82 366.189 324.94 366.226 325.05 366.255L325.651 366.417C325.805 366.457 325.976 366.513 326.165 366.584C326.355 366.656 326.537 366.753 326.711 366.876C326.886 366.997 327.03 367.153 327.144 367.344C327.257 367.534 327.314 367.768 327.314 368.046C327.314 368.365 327.23 368.654 327.063 368.912C326.897 369.17 326.655 369.375 326.335 369.527C326.017 369.679 325.632 369.755 325.177 369.755C324.754 369.755 324.387 369.687 324.077 369.55C323.769 369.413 323.527 369.223 323.349 368.978C323.174 368.734 323.075 368.45 323.052 368.126H323.791C323.81 368.35 323.886 368.535 324.016 368.681C324.149 368.825 324.317 368.933 324.519 369.004C324.723 369.074 324.942 369.108 325.177 369.108C325.451 369.108 325.696 369.064 325.914 368.975C326.131 368.885 326.303 368.76 326.43 368.6C326.557 368.438 326.621 368.25 326.621 368.034C326.621 367.838 326.566 367.678 326.456 367.555C326.347 367.431 326.202 367.331 326.023 367.254C325.844 367.177 325.651 367.11 325.443 367.052L324.715 366.844C324.253 366.712 323.887 366.522 323.618 366.276C323.348 366.029 323.214 365.707 323.214 365.308C323.214 364.977 323.303 364.688 323.482 364.442C323.663 364.194 323.906 364.001 324.21 363.864C324.516 363.726 324.858 363.657 325.235 363.657C325.616 363.657 325.955 363.725 326.251 363.862C326.548 363.996 326.783 364.181 326.956 364.416C327.131 364.651 327.224 364.917 327.233 365.216H326.54ZM329.207 363.737V369.651H328.491V363.737H329.207ZM335.333 363.737V369.651H334.64L331.417 365.008H331.359V369.651H330.643V363.737H331.336L334.57 368.392H334.628V363.737H335.333ZM340.808 365.585C340.745 365.391 340.661 365.217 340.557 365.063C340.455 364.907 340.333 364.774 340.19 364.664C340.05 364.555 339.89 364.471 339.711 364.413C339.532 364.355 339.336 364.326 339.122 364.326C338.771 364.326 338.453 364.417 338.166 364.598C337.879 364.779 337.651 365.045 337.482 365.398C337.312 365.75 337.228 366.182 337.228 366.694C337.228 367.206 337.313 367.638 337.485 367.991C337.656 368.343 337.888 368.61 338.18 368.791C338.473 368.971 338.802 369.062 339.168 369.062C339.507 369.062 339.805 368.99 340.063 368.845C340.323 368.699 340.525 368.493 340.67 368.227C340.816 367.96 340.889 367.645 340.889 367.283L341.108 367.329H339.33V366.694H341.582V367.329C341.582 367.816 341.478 368.24 341.27 368.6C341.064 368.96 340.779 369.239 340.415 369.437C340.054 369.634 339.638 369.732 339.168 369.732C338.644 369.732 338.184 369.609 337.788 369.362C337.393 369.116 337.085 368.766 336.864 368.311C336.644 367.857 336.535 367.318 336.535 366.694C336.535 366.226 336.597 365.806 336.722 365.432C336.849 365.057 337.028 364.737 337.259 364.474C337.49 364.21 337.764 364.008 338.079 363.867C338.395 363.727 338.743 363.657 339.122 363.657C339.434 363.657 339.724 363.704 339.994 363.798C340.265 363.89 340.507 364.022 340.719 364.194C340.932 364.363 341.11 364.566 341.253 364.803C341.395 365.038 341.493 365.299 341.547 365.585H340.808ZM348.976 363.737H349.692V367.653C349.692 368.057 349.597 368.418 349.406 368.736C349.218 369.051 348.951 369.301 348.607 369.484C348.262 369.665 347.858 369.755 347.394 369.755C346.93 369.755 346.526 369.665 346.181 369.484C345.837 369.301 345.569 369.051 345.378 368.736C345.19 368.418 345.095 368.057 345.095 367.653V363.737H345.812V367.595C345.812 367.884 345.875 368.141 346.002 368.366C346.129 368.589 346.31 368.766 346.545 368.894C346.782 369.022 347.065 369.085 347.394 369.085C347.723 369.085 348.006 369.022 348.243 368.894C348.48 368.766 348.661 368.589 348.786 368.366C348.913 368.141 348.976 367.884 348.976 367.595V363.737ZM351.122 369.651V363.737H353.121C353.585 363.737 353.964 363.821 354.258 363.989C354.555 364.154 354.774 364.378 354.917 364.661C355.059 364.944 355.13 365.26 355.13 365.608C355.13 365.957 355.059 366.274 354.917 366.558C354.776 366.843 354.559 367.071 354.264 367.24C353.97 367.407 353.592 367.491 353.132 367.491H351.7V366.856H353.109C353.427 366.856 353.682 366.801 353.874 366.691C354.067 366.582 354.206 366.433 354.293 366.247C354.381 366.058 354.426 365.845 354.426 365.608C354.426 365.372 354.381 365.16 354.293 364.973C354.206 364.787 354.066 364.64 353.871 364.534C353.677 364.427 353.419 364.373 353.097 364.373H351.839V369.651H351.122Z" fill="#E8E8E3"/>
<path d="M317.254 208.85L291.534 208.733L291.513 213.453L317.233 213.57L317.254 208.85Z" fill="#8FADE3"/>
<path opacity="0.1" d="M317.254 208.85L291.534 208.733L291.513 213.453L317.233 213.57L317.254 208.85Z" fill="black"/>
<path d="M392.65 237.83C392.852 237.81 393.05 237.763 393.24 237.69C393.517 237.582 393.757 237.398 393.934 237.159C394.111 236.92 394.217 236.636 394.24 236.34C394.24 234.75 394.24 232.43 394.24 229.45C394.24 227.96 394.24 226.29 394.24 224.45C394.24 224 394.24 223.53 394.24 223.06C394.305 222.604 394.206 222.14 393.96 221.75C393.822 221.563 393.643 221.411 393.437 221.305C393.23 221.199 393.002 221.143 392.77 221.14H391.21H376.76L293.12 220.83C292.906 220.826 292.694 220.874 292.503 220.97C292.311 221.066 292.146 221.207 292.02 221.38C291.779 221.771 291.686 222.236 291.76 222.69C291.76 223.69 291.76 224.69 291.76 225.69C291.76 227.69 291.76 229.69 291.76 231.69C291.76 232.69 291.76 233.69 291.76 234.69C291.719 235.156 291.719 235.624 291.76 236.09C291.813 236.29 291.91 236.475 292.045 236.631C292.181 236.787 292.35 236.91 292.54 236.99C292.737 237.068 292.948 237.106 293.16 237.1H298.25L320.46 237.22L358.06 237.45L383.41 237.65L390.3 237.73H392.09C392.5 237.73 392.7 237.73 392.7 237.73H392.09H390.3H383.41H358.06L320.46 237.61L298.25 237.52H293.16C292.88 237.531 292.601 237.484 292.34 237.38C292.077 237.268 291.843 237.097 291.655 236.88C291.468 236.663 291.333 236.407 291.26 236.13C291.202 235.868 291.182 235.598 291.2 235.33V234.59C291.2 233.59 291.2 232.59 291.2 231.59C291.2 229.59 291.2 227.59 291.2 225.59C291.2 224.59 291.2 223.59 291.2 222.59C291.181 222.324 291.181 222.056 291.2 221.79C291.237 221.496 291.351 221.217 291.53 220.98C291.703 220.739 291.931 220.543 292.196 220.408C292.46 220.274 292.753 220.206 293.05 220.21L376.69 220.67L391.14 220.77H392.7C392.975 220.77 393.246 220.837 393.489 220.964C393.733 221.091 393.942 221.275 394.1 221.5C394.382 221.935 394.496 222.457 394.42 222.97C394.42 223.44 394.42 223.91 394.42 224.36C394.42 226.18 394.42 227.85 394.42 229.36C394.42 232.36 394.35 234.66 394.33 236.26C394.306 236.568 394.194 236.862 394.008 237.108C393.822 237.354 393.569 237.542 393.28 237.65C393.091 237.767 392.873 237.83 392.65 237.83Z" fill="#E0E0E0"/>
<path d="M346.3 225.85H299.26V230.26H346.3V225.85Z" fill="#8FADE3"/>
<path opacity="0.2" d="M346.3 225.85H299.26V230.26H346.3V225.85Z" fill="white"/>
<path d="M317.079 251.909L291.359 251.792L291.338 256.512L317.057 256.629L317.079 251.909Z" fill="#8FADE3"/>
<path opacity="0.1" d="M317.079 251.909L291.359 251.792L291.338 256.512L317.057 256.629L317.079 251.909Z" fill="black"/>
<path d="M392 280.89C392.202 280.865 392.402 280.828 392.6 280.78C392.879 280.691 393.136 280.543 393.354 280.347C393.571 280.15 393.744 279.909 393.86 279.64C394.017 279.236 394.079 278.802 394.04 278.37C394.04 277.89 394.04 277.37 394.04 276.79C394.04 275.63 394.04 274.31 394.04 272.79V266.44C394.088 265.98 393.986 265.517 393.75 265.12C393.503 264.712 393.115 264.41 392.66 264.27C392.162 264.181 391.655 264.154 391.15 264.19H376.76L293.41 263.88C292.962 263.881 292.529 264.045 292.192 264.341C291.856 264.637 291.638 265.045 291.58 265.49C291.58 266.44 291.58 267.49 291.58 268.49C291.58 270.49 291.58 272.49 291.58 274.49C291.58 275.49 291.58 276.49 291.58 277.49C291.543 277.957 291.563 278.428 291.64 278.89C291.765 279.295 292.022 279.648 292.37 279.89C292.739 280.124 293.173 280.236 293.61 280.21H295H297.89L320.02 280.32L357.49 280.55L382.75 280.75L389.62 280.83H382.75H357.49L320 280.79L297.87 280.71H293.52C292.979 280.742 292.442 280.598 291.99 280.3C291.535 279.985 291.203 279.522 291.05 278.99C290.96 278.482 290.934 277.965 290.97 277.45C290.97 276.45 290.97 275.45 290.97 274.45C290.97 272.45 290.97 270.45 290.97 268.45C290.97 267.45 290.97 266.45 290.97 265.45C291.043 264.878 291.322 264.353 291.754 263.972C292.187 263.591 292.744 263.38 293.32 263.38L376.67 263.84L391.06 263.95C391.596 263.917 392.134 263.954 392.66 264.06C393.18 264.23 393.618 264.586 393.89 265.06C394.149 265.5 394.261 266.012 394.21 266.52C394.21 266.99 394.21 267.45 394.21 267.91C394.21 269.72 394.21 271.38 394.21 272.91C394.21 274.44 394.21 275.73 394.21 276.91C394.21 277.48 394.21 278.01 394.21 278.5C394.246 278.947 394.174 279.397 394 279.81C393.87 280.086 393.682 280.331 393.449 280.527C393.216 280.724 392.944 280.868 392.65 280.95C392.431 280.968 392.212 280.948 392 280.89Z" fill="#E0E0E0"/>
<path d="M316.885 296.838L291.165 296.721L291.144 301.441L316.863 301.558L316.885 296.838Z" fill="#8FADE3"/>
<path opacity="0.1" d="M316.885 296.838L291.165 296.721L291.144 301.441L316.863 301.558L316.885 296.838Z" fill="black"/>
<path d="M391.8 325.8C392.002 325.776 392.203 325.739 392.4 325.69C392.678 325.602 392.934 325.455 393.151 325.26C393.369 325.066 393.542 324.827 393.66 324.56C393.817 324.156 393.878 323.722 393.84 323.29C393.84 322.8 393.84 322.29 393.84 321.7C393.84 320.55 393.84 319.22 393.84 317.7V311.35C393.888 310.89 393.786 310.427 393.55 310.03C393.297 309.63 392.911 309.332 392.46 309.19C391.962 309.098 391.455 309.067 390.95 309.1H376.56L293.21 308.79C292.762 308.791 292.329 308.955 291.992 309.251C291.656 309.547 291.438 309.955 291.38 310.4C291.38 311.4 291.38 312.4 291.38 313.4C291.38 315.4 291.38 317.4 291.38 319.4C291.38 320.4 291.38 321.4 291.38 322.4C291.343 322.864 291.363 323.331 291.44 323.79C291.56 324.198 291.818 324.552 292.17 324.79C292.537 325.03 292.973 325.142 293.41 325.11H297.76L319.89 325.23L357.36 325.46L382.62 325.66L389.49 325.74H382.62H357.36L319.89 325.63L297.76 325.54H293.41C292.869 325.577 292.331 325.432 291.88 325.13C291.425 324.815 291.093 324.352 290.94 323.82C290.85 323.312 290.824 322.795 290.86 322.28C290.86 321.28 290.86 320.28 290.86 319.28C290.86 317.28 290.86 315.28 290.86 313.28C290.86 312.28 290.86 311.28 290.86 310.23C290.931 309.659 291.208 309.134 291.638 308.752C292.069 308.371 292.625 308.161 293.2 308.16L376.55 308.62L390.94 308.73C391.476 308.697 392.014 308.734 392.54 308.84C393.06 309.01 393.498 309.366 393.77 309.84C394.029 310.28 394.141 310.792 394.09 311.3C394.09 311.77 394.09 312.24 394.09 312.69C394.09 314.5 394.09 316.16 394.09 317.69C394.09 319.22 394.09 320.51 394.09 321.69C394.09 322.26 394.09 322.79 394.09 323.28C394.128 323.727 394.056 324.177 393.88 324.59C393.75 324.866 393.562 325.111 393.329 325.307C393.096 325.504 392.824 325.648 392.53 325.73C392.296 325.81 392.045 325.834 391.8 325.8Z" fill="#E0E0E0"/>
<path d="M345.296 270.157L298.256 269.943L298.236 274.353L345.276 274.567L345.296 270.157Z" fill="#8FADE3"/>
<path opacity="0.2" d="M345.296 270.157L298.256 269.943L298.236 274.353L345.276 274.567L345.296 270.157Z" fill="white"/>
<path d="M302.51 317.64C302.48 318.042 302.334 318.427 302.087 318.746C301.841 319.066 301.507 319.306 301.125 319.437C300.744 319.568 300.332 319.585 299.942 319.484C299.551 319.384 299.199 319.171 298.928 318.872C298.657 318.572 298.481 318.201 298.419 317.802C298.358 317.403 298.415 316.995 298.584 316.629C298.752 316.262 299.025 315.954 299.367 315.74C299.709 315.527 300.107 315.419 300.51 315.43C301.067 315.461 301.59 315.71 301.964 316.124C302.338 316.538 302.535 317.083 302.51 317.64Z" fill="#8FADE3"/>
<path d="M308.88 317.67C308.9 317.952 308.861 318.235 308.767 318.501C308.672 318.768 308.524 319.012 308.331 319.218C308.139 319.425 307.906 319.59 307.646 319.703C307.387 319.815 307.108 319.873 306.825 319.873C306.542 319.873 306.263 319.815 306.004 319.703C305.744 319.59 305.511 319.425 305.318 319.218C305.126 319.012 304.978 318.768 304.883 318.501C304.789 318.235 304.75 317.952 304.77 317.67C304.75 317.388 304.789 317.105 304.883 316.839C304.978 316.572 305.126 316.328 305.318 316.122C305.511 315.915 305.744 315.75 306.004 315.637C306.263 315.525 306.542 315.467 306.825 315.467C307.108 315.467 307.387 315.525 307.646 315.637C307.906 315.75 308.139 315.915 308.331 316.122C308.524 316.328 308.672 316.572 308.767 316.839C308.861 317.105 308.9 317.388 308.88 317.67Z" fill="#8FADE3"/>
<path d="M315.26 317.7C315.23 318.102 315.084 318.487 314.837 318.806C314.591 319.126 314.257 319.366 313.875 319.497C313.494 319.628 313.082 319.645 312.692 319.544C312.301 319.444 311.949 319.231 311.678 318.932C311.407 318.632 311.231 318.261 311.169 317.862C311.108 317.463 311.165 317.055 311.334 316.689C311.502 316.322 311.775 316.014 312.117 315.8C312.459 315.587 312.857 315.479 313.26 315.49C313.816 315.524 314.337 315.774 314.711 316.187C315.085 316.6 315.282 317.143 315.26 317.7Z" fill="#8FADE3"/>
<path d="M321.63 317.73C321.6 318.132 321.454 318.517 321.207 318.836C320.961 319.156 320.627 319.396 320.245 319.527C319.864 319.658 319.452 319.675 319.062 319.574C318.671 319.474 318.319 319.261 318.048 318.962C317.777 318.662 317.601 318.291 317.539 317.892C317.478 317.493 317.535 317.085 317.704 316.719C317.872 316.352 318.145 316.044 318.487 315.83C318.829 315.617 319.227 315.509 319.63 315.52C320.186 315.554 320.707 315.804 321.081 316.217C321.455 316.63 321.652 317.173 321.63 317.73Z" fill="#8FADE3"/>
<path d="M328 317.75C327.972 318.153 327.827 318.539 327.582 318.86C327.337 319.18 327.003 319.422 326.622 319.555C326.24 319.688 325.828 319.705 325.437 319.606C325.046 319.506 324.692 319.294 324.421 318.995C324.149 318.696 323.971 318.324 323.909 317.925C323.847 317.526 323.904 317.118 324.072 316.751C324.241 316.384 324.513 316.074 324.856 315.861C325.198 315.647 325.596 315.539 326 315.55C326.554 315.584 327.074 315.832 327.447 316.243C327.821 316.654 328.019 317.195 328 317.75Z" fill="#8FADE3"/>
<path d="M334.38 317.78C334.353 318.181 334.209 318.565 333.966 318.885C333.723 319.205 333.392 319.447 333.014 319.581C332.635 319.716 332.226 319.736 331.835 319.641C331.445 319.546 331.092 319.338 330.818 319.044C330.544 318.75 330.362 318.383 330.294 317.987C330.227 317.591 330.276 317.184 330.437 316.816C330.598 316.448 330.862 316.135 331.199 315.915C331.535 315.695 331.928 315.579 332.33 315.58C332.893 315.601 333.425 315.844 333.81 316.256C334.194 316.669 334.399 317.217 334.38 317.78Z" fill="#8FADE3"/>
<path d="M340.75 317.81C340.77 318.092 340.731 318.375 340.637 318.641C340.542 318.908 340.394 319.152 340.202 319.358C340.009 319.565 339.776 319.73 339.516 319.843C339.257 319.955 338.978 320.013 338.695 320.013C338.412 320.013 338.133 319.955 337.874 319.843C337.614 319.73 337.381 319.565 337.189 319.358C336.996 319.152 336.848 318.908 336.753 318.641C336.659 318.375 336.62 318.092 336.64 317.81C336.62 317.528 336.659 317.245 336.753 316.979C336.848 316.712 336.996 316.468 337.189 316.262C337.381 316.055 337.614 315.89 337.874 315.777C338.133 315.665 338.412 315.607 338.695 315.607C338.978 315.607 339.257 315.665 339.516 315.777C339.776 315.89 340.009 316.055 340.202 316.262C340.394 316.468 340.542 316.712 340.637 316.979C340.731 317.245 340.77 317.528 340.75 317.81Z" fill="#8FADE3"/>
<path d="M347.12 317.84C347.093 318.241 346.949 318.625 346.706 318.945C346.463 319.265 346.132 319.507 345.754 319.641C345.375 319.776 344.966 319.796 344.575 319.701C344.185 319.606 343.831 319.398 343.558 319.104C343.284 318.81 343.102 318.443 343.034 318.047C342.967 317.651 343.016 317.244 343.177 316.876C343.338 316.508 343.602 316.195 343.939 315.975C344.275 315.755 344.668 315.639 345.07 315.64C345.633 315.661 346.165 315.904 346.55 316.316C346.934 316.729 347.139 317.277 347.12 317.84Z" fill="#8FADE3"/>
<path d="M353.49 317.87C353.462 318.273 353.317 318.659 353.072 318.98C352.827 319.3 352.493 319.542 352.112 319.675C351.73 319.808 351.318 319.825 350.927 319.726C350.536 319.626 350.182 319.414 349.911 319.115C349.639 318.816 349.461 318.444 349.399 318.045C349.337 317.646 349.394 317.238 349.562 316.871C349.731 316.504 350.003 316.194 350.346 315.981C350.688 315.767 351.086 315.659 351.49 315.67C352.044 315.704 352.564 315.952 352.937 316.363C353.311 316.774 353.509 317.315 353.49 317.87Z" fill="#8FADE3"/>
<g opacity="0.2">
<path d="M302.51 317.64C302.48 318.042 302.334 318.427 302.087 318.746C301.841 319.066 301.507 319.306 301.125 319.437C300.744 319.568 300.332 319.585 299.942 319.484C299.551 319.384 299.199 319.171 298.928 318.872C298.657 318.572 298.481 318.201 298.419 317.802C298.358 317.403 298.415 316.995 298.584 316.629C298.752 316.262 299.025 315.954 299.367 315.74C299.709 315.527 300.107 315.419 300.51 315.43C301.067 315.461 301.59 315.71 301.964 316.124C302.338 316.538 302.535 317.083 302.51 317.64Z" fill="white"/>
<path d="M308.88 317.67C308.9 317.952 308.861 318.235 308.767 318.501C308.672 318.768 308.524 319.012 308.331 319.218C308.139 319.425 307.906 319.59 307.646 319.703C307.387 319.815 307.108 319.873 306.825 319.873C306.542 319.873 306.263 319.815 306.004 319.703C305.744 319.59 305.511 319.425 305.318 319.218C305.126 319.012 304.978 318.768 304.883 318.501C304.789 318.235 304.75 317.952 304.77 317.67C304.75 317.388 304.789 317.105 304.883 316.839C304.978 316.572 305.126 316.328 305.318 316.122C305.511 315.915 305.744 315.75 306.004 315.637C306.263 315.525 306.542 315.467 306.825 315.467C307.108 315.467 307.387 315.525 307.646 315.637C307.906 315.75 308.139 315.915 308.331 316.122C308.524 316.328 308.672 316.572 308.767 316.839C308.861 317.105 308.9 317.388 308.88 317.67Z" fill="white"/>
<path d="M315.26 317.7C315.23 318.102 315.084 318.487 314.837 318.806C314.591 319.126 314.257 319.366 313.875 319.497C313.494 319.628 313.082 319.645 312.692 319.544C312.301 319.444 311.949 319.231 311.678 318.932C311.407 318.632 311.231 318.261 311.169 317.862C311.108 317.463 311.165 317.055 311.334 316.689C311.502 316.322 311.775 316.014 312.117 315.8C312.459 315.587 312.857 315.479 313.26 315.49C313.816 315.524 314.337 315.774 314.711 316.187C315.085 316.6 315.282 317.143 315.26 317.7Z" fill="white"/>
<path d="M321.63 317.73C321.6 318.132 321.454 318.517 321.207 318.836C320.961 319.156 320.627 319.396 320.245 319.527C319.864 319.658 319.452 319.675 319.062 319.574C318.671 319.474 318.319 319.261 318.048 318.962C317.777 318.662 317.601 318.291 317.539 317.892C317.478 317.493 317.535 317.085 317.704 316.719C317.872 316.352 318.145 316.044 318.487 315.83C318.829 315.617 319.227 315.509 319.63 315.52C320.186 315.554 320.707 315.804 321.081 316.217C321.455 316.63 321.652 317.173 321.63 317.73Z" fill="white"/>
<path d="M328 317.75C327.972 318.153 327.827 318.539 327.582 318.86C327.337 319.18 327.003 319.422 326.622 319.555C326.24 319.688 325.828 319.705 325.437 319.606C325.046 319.506 324.692 319.294 324.421 318.995C324.149 318.696 323.971 318.324 323.909 317.925C323.847 317.526 323.904 317.118 324.072 316.751C324.241 316.384 324.513 316.074 324.856 315.861C325.198 315.647 325.596 315.539 326 315.55C326.554 315.584 327.074 315.832 327.447 316.243C327.821 316.654 328.019 317.195 328 317.75Z" fill="white"/>
<path d="M334.38 317.78C334.353 318.181 334.209 318.565 333.966 318.885C333.723 319.205 333.392 319.447 333.014 319.581C332.635 319.716 332.226 319.736 331.835 319.641C331.445 319.546 331.092 319.338 330.818 319.044C330.544 318.75 330.362 318.383 330.294 317.987C330.227 317.591 330.276 317.184 330.437 316.816C330.598 316.448 330.862 316.135 331.199 315.915C331.535 315.695 331.928 315.579 332.33 315.58C332.893 315.601 333.425 315.844 333.81 316.256C334.194 316.669 334.399 317.217 334.38 317.78Z" fill="white"/>
<path d="M340.75 317.81C340.77 318.092 340.731 318.375 340.637 318.641C340.542 318.908 340.394 319.152 340.202 319.358C340.009 319.565 339.776 319.73 339.516 319.843C339.257 319.955 338.978 320.013 338.695 320.013C338.412 320.013 338.133 319.955 337.874 319.843C337.614 319.73 337.381 319.565 337.189 319.358C336.996 319.152 336.848 318.908 336.753 318.641C336.659 318.375 336.62 318.092 336.64 317.81C336.62 317.528 336.659 317.245 336.753 316.979C336.848 316.712 336.996 316.468 337.189 316.262C337.381 316.055 337.614 315.89 337.874 315.777C338.133 315.665 338.412 315.607 338.695 315.607C338.978 315.607 339.257 315.665 339.516 315.777C339.776 315.89 340.009 316.055 340.202 316.262C340.394 316.468 340.542 316.712 340.637 316.979C340.731 317.245 340.77 317.528 340.75 317.81Z" fill="white"/>
<path d="M347.12 317.84C347.093 318.241 346.949 318.625 346.706 318.945C346.463 319.265 346.132 319.507 345.754 319.641C345.375 319.776 344.966 319.796 344.575 319.701C344.185 319.606 343.831 319.398 343.558 319.104C343.284 318.81 343.102 318.443 343.034 318.047C342.967 317.651 343.016 317.244 343.177 316.876C343.338 316.508 343.602 316.195 343.939 315.975C344.275 315.755 344.668 315.639 345.07 315.64C345.633 315.661 346.165 315.904 346.55 316.316C346.934 316.729 347.139 317.277 347.12 317.84Z" fill="white"/>
<path d="M353.49 317.87C353.462 318.273 353.317 318.659 353.072 318.98C352.827 319.3 352.493 319.542 352.112 319.675C351.73 319.808 351.318 319.825 350.927 319.726C350.536 319.626 350.182 319.414 349.911 319.115C349.639 318.816 349.461 318.444 349.399 318.045C349.337 317.646 349.394 317.238 349.562 316.871C349.731 316.504 350.003 316.194 350.346 315.981C350.688 315.767 351.086 315.659 351.49 315.67C352.044 315.704 352.564 315.952 352.937 316.363C353.311 316.774 353.509 317.315 353.49 317.87Z" fill="white"/>
</g>
<path d="M344.44 173.51C345.135 173.204 345.724 172.701 346.135 172.062C346.545 171.424 346.759 170.679 346.75 169.92C346.776 169.427 346.701 168.933 346.53 168.47C346.359 168.006 346.096 167.582 345.755 167.224C345.415 166.865 345.006 166.58 344.552 166.385C344.098 166.19 343.609 166.089 343.115 166.089C342.621 166.089 342.132 166.19 341.678 166.385C341.224 166.58 340.815 166.865 340.475 167.224C340.134 167.582 339.871 168.006 339.7 168.47C339.529 168.933 339.454 169.427 339.48 169.92C339.465 170.687 339.677 171.441 340.09 172.087C340.503 172.733 341.098 173.242 341.8 173.55C336.2 174.39 336.45 180.47 336.45 180.47L349.69 180.53C349.69 180.53 350 174.34 344.44 173.51Z" fill="#8FADE3"/>
<path opacity="0.1" d="M344.44 173.51C345.135 173.204 345.724 172.701 346.135 172.062C346.545 171.424 346.759 170.679 346.75 169.92C346.776 169.427 346.701 168.933 346.53 168.47C346.359 168.006 346.096 167.582 345.755 167.224C345.415 166.865 345.006 166.58 344.552 166.385C344.098 166.19 343.609 166.089 343.115 166.089C342.621 166.089 342.132 166.19 341.678 166.385C341.224 166.58 340.815 166.865 340.475 167.224C340.134 167.582 339.871 168.006 339.7 168.47C339.529 168.933 339.454 169.427 339.48 169.92C339.465 170.687 339.677 171.441 340.09 172.087C340.503 172.733 341.098 173.242 341.8 173.55C336.2 174.39 336.45 180.47 336.45 180.47L349.69 180.53C349.69 180.53 350 174.34 344.44 173.51Z" fill="black"/>
<path d="M365.954 184.451L318.765 184.237L318.739 189.877L365.929 190.091L365.954 184.451Z" fill="#8FADE3"/>
<path opacity="0.2" d="M365.954 184.451L318.765 184.237L318.739 189.877L365.929 190.091L365.954 184.451Z" fill="white"/>
<path d="M192.47 213.68H192L190.64 213.78C189.904 213.824 189.172 213.921 188.45 214.07C187.982 214.136 187.518 214.226 187.06 214.34L185.51 214.77C182.872 215.579 180.383 216.812 178.14 218.42C175.177 220.571 172.703 223.324 170.88 226.5C169.809 228.331 168.956 230.281 168.34 232.31C167.692 234.516 167.32 236.793 167.23 239.09C167.17 240.297 167.19 241.506 167.29 242.71C167.29 243.32 167.46 243.93 167.54 244.55C167.607 245.175 167.724 245.794 167.89 246.4C168.789 250.413 170.614 254.16 173.218 257.342C175.822 260.525 179.134 263.055 182.89 264.73C185.608 265.903 188.521 266.557 191.48 266.66C194.536 266.828 197.595 266.39 200.48 265.37L201.36 265.04H201.48L201.58 265.1L214.19 271.5L213.82 271.82C212.47 267.64 211.17 263.59 209.91 259.7V259.55L210.02 259.44C213.079 256.359 215.35 252.586 216.64 248.44C217.809 244.65 218.15 240.653 217.64 236.72C217.187 233.225 216.063 229.849 214.33 226.78C212.836 224.143 210.909 221.777 208.63 219.78C206.749 218.199 204.668 216.875 202.44 215.84C200.754 215.113 198.998 214.56 197.2 214.19L195.2 213.86L193.75 213.75L192.87 213.69H192.57C192.67 213.679 192.77 213.679 192.87 213.69H193.76L195.21 213.75L197.21 214.04C199.031 214.383 200.81 214.916 202.52 215.63C204.786 216.652 206.905 217.974 208.82 219.56C211.141 221.548 213.109 223.915 214.64 226.56C216.422 229.662 217.58 233.083 218.05 236.63C218.602 240.624 218.285 244.69 217.12 248.55C215.821 252.782 213.515 256.635 210.4 259.78L210.46 259.52C211.72 263.41 213.03 267.46 214.39 271.63L214.58 272.24L214.01 271.95L201.4 265.56H201.62L200.72 265.89C197.779 266.925 194.664 267.373 191.55 267.21C188.528 267.095 185.553 266.417 182.78 265.21C177.49 262.944 173.088 259.007 170.25 254C168.944 251.688 167.99 249.194 167.42 246.6C167.264 245.978 167.147 245.347 167.07 244.71C166.99 244.08 166.86 243.46 166.83 242.84C166.559 239.282 166.935 235.704 167.94 232.28C168.572 230.223 169.448 228.248 170.55 226.4C172.416 223.196 174.942 220.424 177.96 218.27C180.24 216.658 182.771 215.435 185.45 214.65L187.02 214.25C187.482 214.143 187.949 214.059 188.42 214C189.15 213.865 189.888 213.785 190.63 213.76L192 213.71C192.156 213.689 192.313 213.679 192.47 213.68Z" fill="#8FADE3"/>
<path d="M198.17 237H196.32L192.32 231.38V227.69C192.32 227.69 189.46 227.51 189.8 232.34C190.14 237.17 189.8 235.94 189.8 235.94C189.8 235.94 183.73 235.94 183.23 236.49C182.73 237.04 182.7 242.9 182.63 246.17C182.592 246.958 182.818 247.737 183.273 248.382C183.727 249.027 184.385 249.501 185.14 249.73C185.352 249.789 185.57 249.819 185.79 249.82C187.31 249.82 195.04 248.59 195.04 248.59H198.23L198.17 237Z" fill="#8FADE3"/>
<path d="M203.46 236.01L202.32 248.65H199.16V236.27L203.46 236.01Z" fill="#8FADE3"/>
<path d="M241.15 493.34V484.79L225.82 484.68L225.69 497.61L226.64 497.68C230.87 497.95 248.16 498.35 251 497.47C254.16 496.49 241.15 493.34 241.15 493.34Z" fill="#8FADE3"/>
<path d="M251.36 496.67C251.36 496.81 245.62 496.93 238.55 496.93C231.48 496.93 225.74 496.81 225.74 496.67C225.74 496.53 231.48 496.41 238.55 496.41C245.62 496.41 251.36 496.53 251.36 496.67Z" fill="#263238"/>
<path d="M241.42 495.09C241.29 495.02 241.42 494.57 241.73 494.09C242.04 493.61 242.46 493.41 242.56 493.51C242.66 493.61 242.45 493.99 242.15 494.4C241.85 494.81 241.55 495.16 241.42 495.09Z" fill="#263238"/>
<path d="M242.4 495.65C242.26 495.65 242.33 495.09 242.63 494.56C242.93 494.03 243.33 493.71 243.44 493.79C243.55 493.87 243.37 494.32 243.09 494.79C242.81 495.26 242.53 495.7 242.4 495.65Z" fill="#263238"/>
<path d="M230.36 496.63C230.3 496.63 230.07 496.45 229.74 496.07C229.337 495.582 228.888 495.133 228.4 494.73C227.92 494.346 227.347 494.095 226.74 494C226.27 493.94 225.97 494 225.94 493.94C225.91 493.88 226.2 493.67 226.75 493.63C227.476 493.615 228.184 493.855 228.75 494.31C229.28 494.742 229.728 495.267 230.07 495.86C230.3 496.3 230.42 496.59 230.36 496.63Z" fill="#263238"/>
<path d="M241.47 493.48C241.54 493.6 241.28 493.9 240.84 494.06C240.4 494.22 240.01 494.16 239.99 494.06C239.97 493.96 240.28 493.75 240.66 493.61C241.04 493.47 241.39 493.36 241.47 493.48Z" fill="#263238"/>
<path d="M241.23 492.65C241.23 492.8 240.83 492.92 240.31 492.93C239.79 492.94 239.38 492.82 239.39 492.68C239.4 492.54 239.81 492.41 240.31 492.4C240.81 492.39 241.21 492.51 241.23 492.65Z" fill="#263238"/>
<path d="M278.9 493.34V484.79L263.57 484.68L263.44 497.48L264.39 497.55C268.62 497.82 285.92 498.35 288.75 497.47C291.91 496.49 278.9 493.34 278.9 493.34Z" fill="#8FADE3"/>
<path d="M289.11 496.69C289.11 496.83 283.38 496.95 276.3 496.95C269.22 496.95 263.5 496.83 263.5 496.69C263.5 496.55 269.23 496.43 276.3 496.43C283.37 496.43 289.11 496.55 289.11 496.69Z" fill="#263238"/>
<path d="M279.17 495.09C279.05 495.02 279.17 494.57 279.48 494.09C279.79 493.61 280.21 493.41 280.31 493.51C280.41 493.61 280.2 493.99 279.9 494.4C279.6 494.81 279.3 495.16 279.17 495.09Z" fill="#263238"/>
<path d="M280.15 495.65C280.02 495.65 280.08 495.09 280.39 494.56C280.7 494.03 281.09 493.71 281.2 493.79C281.31 493.87 281.12 494.32 280.84 494.79C280.56 495.26 280.29 495.7 280.15 495.65Z" fill="#263238"/>
<path d="M268.11 496.63C268.05 496.63 267.83 496.45 267.49 496.07C267.087 495.582 266.638 495.133 266.15 494.73C265.67 494.346 265.097 494.095 264.49 494C264.03 493.94 263.72 494 263.69 493.94C263.66 493.88 263.95 493.67 264.5 493.63C265.226 493.615 265.934 493.855 266.5 494.31C267.033 494.739 267.481 495.265 267.82 495.86C268.05 496.3 268.17 496.59 268.11 496.63Z" fill="#263238"/>
<path d="M279.22 493.48C279.29 493.6 279.03 493.9 278.59 494.06C278.15 494.22 277.76 494.16 277.74 494.06C277.72 493.96 278.03 493.75 278.41 493.61C278.79 493.47 279.14 493.36 279.22 493.48Z" fill="#263238"/>
<path d="M279 492.65C279 492.8 278.6 492.92 278.08 492.93C277.56 492.94 277.16 492.82 277.17 492.68C277.18 492.54 277.58 492.41 278.08 492.4C278.58 492.39 279 492.51 279 492.65Z" fill="#263238"/>
<path d="M335.38 239.44C334.98 239.03 333.99 239.23 333.99 239.23C334.089 238.654 334.089 238.066 333.99 237.49C333.81 236.93 332.55 237.04 332.55 237.04C332.492 236.568 332.492 236.092 332.55 235.62C332.56 235.515 332.538 235.41 332.486 235.319C332.434 235.228 332.355 235.155 332.26 235.11C331.664 234.867 331.024 234.751 330.38 234.77C329.61 234.22 332.73 229.85 333.89 228.45C335.05 227.05 334.84 225.96 333.81 225.96C333.1 225.96 329.46 230.16 328.34 231.57C327.22 232.98 324.25 236.9 324.15 233.77C324.05 230.64 322.79 228.28 322 227.88C321.21 227.48 320.37 228.42 320.8 229.29C321.178 230.278 321.413 231.315 321.5 232.37C321.609 233.21 321.571 234.063 321.39 234.89C321.058 236.43 320.607 237.941 320.04 239.41H319.96C319.96 239.41 298.14 260.34 296.56 261.83C295.15 263.17 266.79 260.24 261.1 259.64C259.166 259.357 257.214 259.223 255.26 259.24C252.79 259.35 252.35 259.7 249.89 259.73C243.677 259.799 237.479 260.344 231.35 261.36C228.575 261.832 225.982 263.057 223.855 264.901C221.729 266.746 220.149 269.139 219.29 271.82C213.56 289.72 200.58 332.09 198.29 355.89C196.56 359.028 194.997 362.256 193.61 365.56C192 369.94 192.39 370.09 192.93 370.19C194.39 370.46 196.05 362.6 196.67 364.5C197.29 366.4 193.52 373.87 195.05 374.09C197.05 374.37 198.64 366.09 198.83 365.43C199.02 364.77 200.01 364.98 199.83 365.6C199.54 366.48 196.73 375.81 198.69 376.11C199.77 376.27 199.89 374.3 199.89 374.3C199.89 374.3 201.89 365.37 202.8 365.55C203.71 365.73 202.74 371 202.28 372.76C201.82 374.52 202.46 375.41 203.4 374.98C204.04 374.68 205.57 369.33 205.99 367.59C206.41 365.85 207.46 361.03 208.87 363.82C210.28 366.61 212.42 368.23 213.3 368.27C213.498 368.247 213.685 368.165 213.837 368.035C213.988 367.905 214.097 367.733 214.15 367.541C214.203 367.348 214.197 367.144 214.132 366.955C214.068 366.766 213.949 366.601 213.79 366.48C213.033 365.741 212.383 364.899 211.86 363.98C211.394 363.264 211.055 362.472 210.86 361.64C210.457 359.981 210.223 358.286 210.16 356.58L210 355.58C212.24 344.49 218.69 311.94 228 291.15L231.82 299.01L233.48 304.83L223.3 329.96L266.72 329.39L260.24 304.45L268.11 278.45C276.62 278.64 298.47 278.96 302.11 277.31C306.69 275.31 330.38 245.39 330.38 245.39C331.924 244.19 333.403 242.908 334.81 241.55C334.81 241.55 336.25 240.34 335.38 239.44Z" fill="#FFBE9D"/>
<path d="M221.39 311.39C222.65 307.09 229.12 285.83 229.12 285.83C229.12 285.83 232.3 303.16 231.46 305.25C230.687 307.039 229.774 308.765 228.73 310.41C221.39 321.58 222.35 327.17 222.35 327.17L266.7 325.82C266.8 319.62 263.13 305.2 262.37 302.9C261.61 300.6 264.14 293.07 264.14 293.07C264.14 293.07 269.14 287.98 268.96 285.36C268.865 283.007 268.574 280.665 268.09 278.36L295.09 279.36L294.24 261.06L255.46 257.18C254.11 260.99 241.9 259.12 241.9 259.12C228.72 259.56 227.9 261.98 222.42 266.24C216.94 270.5 207.87 307.06 207.87 307.06L221.39 311.39Z" fill="#8FADE3"/>
<path d="M247.61 307.06C246.841 307.197 246.059 307.238 245.28 307.18C243.83 307.18 241.84 307.08 239.65 306.86C237.46 306.64 235.48 306.33 234.07 306.05C233.293 305.95 232.53 305.755 231.8 305.47C232.582 305.47 233.362 305.544 234.13 305.69C235.55 305.87 237.52 306.12 239.7 306.34C241.88 306.56 243.86 306.71 245.29 306.81C246.069 306.82 246.846 306.904 247.61 307.06Z" fill="#263238"/>
<path d="M250.65 303.29C249.881 303.667 249.068 303.945 248.23 304.12C244.24 305.168 240.124 305.656 236 305.57C235.147 305.598 234.293 305.517 233.46 305.33C234.302 305.224 235.151 305.18 236 305.2C237.57 305.15 239.73 305.04 242.11 304.76C244.49 304.48 246.61 304.08 248.11 303.76C248.943 303.538 249.792 303.38 250.65 303.29Z" fill="#263238"/>
<path d="M265.57 286.47C265.55 287.232 265.446 287.99 265.26 288.73C265 290.12 264.6 292.02 264.09 294.1C263.58 296.18 263.09 298.1 262.65 299.4C262.473 300.144 262.211 300.866 261.87 301.55C261.926 300.79 262.067 300.039 262.29 299.31C262.67 297.75 263.1 295.95 263.58 293.98C264.06 292.01 264.52 290.21 264.9 288.65C265.035 287.899 265.26 287.167 265.57 286.47Z" fill="#263238"/>
<path d="M221.86 308.84C219.547 308.483 217.263 307.951 215.03 307.25C212.748 306.716 210.508 306.014 208.33 305.15C210.642 305.513 212.925 306.044 215.16 306.74C217.443 307.272 219.682 307.974 221.86 308.84Z" fill="#263238"/>
<path d="M268.57 278.14C268.193 278.205 267.807 278.205 267.43 278.14C266.385 278.033 265.36 277.787 264.38 277.41C262.744 276.795 261.255 275.845 260.008 274.621C258.761 273.396 257.784 271.924 257.14 270.3C256.428 268.513 256.124 266.59 256.25 264.67C256.295 263.087 256.768 261.545 257.62 260.21C258.219 259.31 259.114 258.649 260.15 258.34C260.427 258.264 260.713 258.227 261 258.23C261.2 258.23 261.3 258.23 261.3 258.23C261.3 258.23 260.88 258.23 260.21 258.5C259.26 258.851 258.454 259.509 257.92 260.37C256.56 262.51 256.18 266.42 257.63 270.07C258.305 271.791 259.361 273.336 260.72 274.59C261.833 275.616 263.115 276.441 264.51 277.03C265.819 277.547 267.18 277.919 268.57 278.14Z" fill="#263238"/>
<path d="M291.88 279C291.63 275.933 291.55 272.855 291.64 269.78C291.562 266.707 291.655 263.632 291.92 260.57C292.17 263.633 292.25 266.708 292.16 269.78C292.244 272.856 292.151 275.935 291.88 279Z" fill="#263238"/>
<path d="M255.2 258.3C255.31 256.07 255.54 253.55 255.54 253.55C255.54 253.55 261.06 252.94 261.39 247.24C261.72 241.54 261.39 228.39 261.39 228.39L251.39 223.27L240.29 232L242 260.5L252.18 261.15C252.958 261.172 253.713 260.884 254.279 260.349C254.845 259.815 255.176 259.078 255.2 258.3Z" fill="#FFBE9D"/>
<path d="M256.19 242.73C256.19 242.73 256.19 242.84 256.1 242.97C256.026 243.064 255.929 243.139 255.82 243.188C255.71 243.237 255.59 243.258 255.47 243.25C254.83 243.25 254.21 242.51 253.99 241.65C253.885 241.233 253.885 240.797 253.99 240.38C254.011 240.198 254.076 240.024 254.181 239.874C254.286 239.724 254.426 239.602 254.59 239.52C254.724 239.464 254.876 239.464 255.01 239.52C255.11 239.57 255.19 239.65 255.24 239.75C255.31 239.92 255.24 240.03 255.24 240.02C255.24 240.01 255.24 239.92 255.14 239.82C255.088 239.748 255.011 239.699 254.924 239.68C254.837 239.662 254.747 239.676 254.67 239.72C254.547 239.794 254.445 239.898 254.374 240.022C254.302 240.146 254.263 240.287 254.26 240.43C254.176 240.802 254.176 241.188 254.26 241.56C254.46 242.34 255 242.97 255.48 243.03C255.574 243.043 255.669 243.036 255.761 243.01C255.852 242.984 255.937 242.94 256.01 242.88C256.13 242.8 256.17 242.72 256.19 242.73Z" fill="#EB996E"/>
<path d="M264.82 225.31C264.05 222.69 261.26 221.39 258.72 220.67C254.85 219.57 250.67 219.09 246.89 220.48C243.11 221.87 238.57 224.31 238.57 228.48C236.34 228.3 235.06 230.25 234.18 232.67C233.617 234.144 233.28 235.695 233.18 237.27C232.9 242.73 231.37 250.27 227.83 254.27C225.83 256.5 223.06 258.04 221.92 260.82C220.92 263.23 221.44 266.09 220.51 268.53C219.68 270.68 217.85 272.21 216.51 274.08C215.145 276.201 214.341 278.635 214.175 281.152C214.009 283.669 214.486 286.188 215.56 288.47C216.642 290.694 218.166 292.674 220.038 294.29C221.91 295.906 224.092 297.124 226.45 297.87C231.121 299.291 236.102 299.34 240.8 298.01C244.326 297.167 247.615 295.536 250.42 293.24C253.29 290.896 255.262 287.632 256 284C256.71 279.92 255.57 275.77 254.72 271.71C252.06 258.88 252.82 258.21 256.18 246.3C256.26 246.09 256.3 245.87 256.36 245.66C256.42 245.45 256.45 245.35 256.49 245.19C256.585 244.719 256.636 244.24 256.64 243.76C256.149 243.943 255.617 243.981 255.105 243.871C254.593 243.761 254.123 243.508 253.75 243.14C253.376 242.748 253.116 242.262 252.996 241.734C252.877 241.206 252.902 240.655 253.07 240.14C253.306 239.577 253.658 239.07 254.102 238.651C254.546 238.232 255.074 237.912 255.65 237.71C256.76 237.25 257.95 237.01 259.04 236.5C261.35 235.4 262.95 233.12 264.04 230.73C264.936 229.074 265.213 227.152 264.82 225.31Z" fill="#263238"/>
<path d="M256.59 243C256.801 243.312 256.976 243.648 257.11 244C257.41 244.63 257.81 245.52 258.25 246.55L258.33 246.74H258.12L257.12 246.83C256.43 246.83 255.85 246.96 255.17 246.95C255.111 246.937 255.056 246.909 255.01 246.868C254.965 246.828 254.93 246.777 254.91 246.72C254.88 246.629 254.88 246.531 254.91 246.44C254.933 246.305 254.963 246.172 255 246.04L255.18 245.33C255.27 244.856 255.411 244.394 255.6 243.95C255.581 244.433 255.511 244.912 255.39 245.38L255.25 246.09C255.2 246.33 255.11 246.7 255.25 246.67C255.75 246.67 256.46 246.56 257.12 246.52L258.12 246.43L257.99 246.65C257.56 245.65 257.2 244.71 256.99 244.06C256.806 243.728 256.671 243.371 256.59 243Z" fill="#8FADE3"/>
<path d="M222.35 327.17L266.7 325.82L286 401.16L282.45 487.58H259L261.87 403L244.72 350.55L247.36 490.93L223.66 491.28L221.17 359.33C221.06 355.66 219.86 347.39 220.31 343.75L222.35 327.17Z" fill="#263238"/>
<path d="M250.62 351.62C249.894 351.666 249.165 351.622 248.45 351.49C247.11 351.33 245.28 351.05 243.27 350.65C241.26 350.25 239.46 349.79 238.16 349.42C237.465 349.267 236.793 349.025 236.16 348.7C236.16 348.55 239.42 349.33 243.42 350.14C247.42 350.95 250.64 351.47 250.62 351.62Z" fill="#455A64"/>
<path d="M282.21 482.84C282.21 482.98 276.9 483.1 270.35 483.1C263.8 483.1 258.48 482.98 258.48 482.84C258.48 482.7 263.79 482.58 270.35 482.58C276.91 482.58 282.21 482.69 282.21 482.84Z" fill="#455A64"/>
<path d="M247.15 487.28C247.15 487.43 241.99 487.54 235.63 487.54C229.27 487.54 224.12 487.43 224.12 487.28C224.12 487.13 229.28 487.02 235.63 487.02C241.98 487.02 247.15 487.14 247.15 487.28Z" fill="#455A64"/>
<path d="M244.09 486.92C243.95 486.92 243.33 456.25 242.7 418.42C242.07 380.59 241.7 349.9 241.83 349.9C241.96 349.9 242.6 380.56 243.22 418.41C243.84 456.26 244.24 486.92 244.09 486.92Z" fill="#455A64"/>
<path d="M279.06 482.84C279.049 482.704 279.049 482.566 279.06 482.43V481.23C279.06 480.15 279.14 478.6 279.2 476.63C279.34 472.63 279.54 466.82 279.79 459.7C280.33 445.38 281.09 425.64 281.92 403.85C281.92 403.64 281.92 403.44 281.92 403.26V403.33C276.67 382.33 271.92 363.27 268.47 349.48L264.47 333.17C264.01 331.26 263.66 329.77 263.41 328.73C263.29 328.24 263.21 327.86 263.14 327.57C263.101 327.44 263.078 327.306 263.07 327.17C263.122 327.296 263.162 327.427 263.19 327.56C263.27 327.84 263.37 328.22 263.51 328.7C263.78 329.7 264.17 331.22 264.67 333.12C265.67 336.98 267.08 342.54 268.84 349.39C272.32 363.17 277.12 382.18 282.44 403.21V403.28C282.44 403.46 282.44 403.67 282.44 403.87C281.55 425.66 280.74 445.39 280.15 459.71C279.84 466.84 279.58 472.61 279.4 476.63C279.3 478.63 279.22 480.15 279.17 481.23C279.17 481.74 279.11 482.14 279.1 482.43C279.101 482.568 279.088 482.705 279.06 482.84Z" fill="#455A64"/>
<path d="M271.41 401.5C269.726 402.054 267.99 402.439 266.23 402.65C264.07 403.02 262.23 403.28 261.4 403.32V403.12C261.67 403.2 261.81 403.25 261.81 403.29C261.81 403.33 261.64 403.29 261.36 403.29H260.76L261.36 403.11C262.14 402.88 263.98 402.5 266.14 402.11C267.872 401.734 269.638 401.53 271.41 401.5Z" fill="#455A64"/>
<path d="M271 404.37C269.44 404.441 267.877 404.371 266.33 404.16C264.768 404.128 263.212 403.957 261.68 403.65C264.805 403.395 267.951 403.638 271 404.37Z" fill="#455A64"/>
<path opacity="0.2" d="M222.16 328.76C222.685 329.434 223.347 329.991 224.102 330.392C224.856 330.794 225.687 331.031 226.54 331.09C228.326 331.302 230.133 331.268 231.91 330.99C243.36 329.72 255.49 328.55 266.7 325.82C252.19 326.63 236.86 326.36 222.35 327.17L222.2 328.41" fill="black"/>
<g opacity="0.2">
<path d="M237.11 349.21L245.29 380.95L244.72 350.55L237.11 349.21Z" fill="black"/>
</g>
</svg>
